<svg width="25" height="25" viewBox="0 0 25 25" fill="none" xmlns="http://www.w3.org/2000/svg">
<path d="M19.7083 4.18618H6.81333C6.41387 4.18618 6.09004 3.86235 6.09004 3.46289V3.10098C6.09004 2.6937 5.75986 2.36353 5.35259 2.36353H1.4749C0.660352 2.36353 0 3.02383 0 3.83843V16.2487L1.89243 7.04185C1.96157 6.70552 2.25757 6.46416 2.60093 6.46416H21.1832V5.66108C21.1832 4.84648 20.5229 4.18618 19.7083 4.18618Z" fill="#9E9E9E"/>
<path d="M23.5249 7.91064H3.19065L0.344601 21.7567C0.251242 22.211 0.598214 22.6366 1.06203 22.6366H22.222C22.9739 22.6366 23.6053 22.0711 23.688 21.3238L24.9908 9.54775C25.0875 8.67427 24.4036 7.91064 23.5249 7.91064Z" fill="#9E9E9E"/>
</svg>
