<svg width="22" height="22" viewBox="0 0 22 22" fill="none" xmlns="http://www.w3.org/2000/svg">
<g clip-path="url(#clip0)">
<path d="M16.1448 14.2013C17.2274 12.7229 17.8749 10.907 17.8749 8.93843C17.8749 4.01047 13.8654 0.000946045 8.93744 0.000946045C4.00948 0.000946045 0 4.01047 0 8.93843C0 13.8664 4.00952 17.8759 8.93748 17.8759C10.9061 17.8759 12.7222 17.2283 14.2005 16.1457L20.0557 22.0008L22 20.0565C22 20.0565 16.1448 14.2013 16.1448 14.2013ZM8.93748 15.1259C5.5255 15.1259 2.75001 12.3504 2.75001 8.93843C2.75001 5.52644 5.5255 2.75096 8.93748 2.75096C12.3495 2.75096 15.125 5.52644 15.125 8.93843C15.125 12.3504 12.3494 15.1259 8.93748 15.1259Z" fill="#9E9E9E"/>
</g>
<defs>
<clipPath id="clip0">
<rect width="22" height="22" fill="white"/>
</clipPath>
</defs>
</svg>
